<svg width="14" height="11" viewBox="0 0 14 11" fill="none" xmlns="http://www.w3.org/2000/svg">
<path d="M4.33967 10.7816C9.24412 10.7816 11.9274 6.71736 11.9274 3.1939C11.9274 3.07965 11.9249 2.96285 11.9198 2.84859C12.4418 2.47111 12.8922 2.00353 13.25 1.46785C12.7639 1.68414 12.2477 1.8254 11.7192 1.8868C12.2757 1.55322 12.6924 1.02919 12.892 0.411854C12.3685 0.722115 11.7959 0.940978 11.1989 1.05906C10.7967 0.631659 10.2649 0.348668 9.68566 0.253841C9.10646 0.159014 8.51215 0.257632 7.99461 0.534449C7.47707 0.811266 7.06514 1.25086 6.8225 1.78527C6.57986 2.31969 6.52002 2.91915 6.65225 3.49098C5.59218 3.43778 4.55513 3.1624 3.60832 2.6827C2.66151 2.203 1.82608 1.52968 1.15619 0.706385C0.815716 1.2934 0.711531 1.98804 0.864808 2.64911C1.01809 3.31019 1.41733 3.8881 1.98139 4.26539C1.55792 4.25195 1.14374 4.13793 0.773047 3.93277V3.96578C0.772668 4.58181 0.985636 5.17896 1.37575 5.65573C1.76587 6.1325 2.30905 6.45945 2.91297 6.58101C2.5207 6.68834 2.10899 6.70398 1.70971 6.62672C1.88012 7.15651 2.21169 7.61988 2.65813 7.95216C3.10457 8.28444 3.64361 8.46905 4.20002 8.48023C3.2554 9.22225 2.08851 9.62472 0.887305 9.62281C0.674281 9.62249 0.461466 9.60943 0.25 9.58371C1.4703 10.3666 2.88983 10.7824 4.33967 10.7816Z" fill="white"/>
</svg>
